<svg xmlns="http://www.w3.org/2000/svg" width="192" height="192" viewBox="0 0 192 192">
  <rect width="192" height="192" rx="24" fill="#0f0f17"/>
  <g transform="translate(36, 36) scale(3)">
    <path d="M8 12 L4 4 M8 12 L12 8" stroke="#6366f1" stroke-width="2.5" stroke-linecap="round" stroke-linejoin="round"/>
    <path d="M32 12 L36 4 M32 12 L28 8" stroke="#6366f1" stroke-width="2.5" stroke-linecap="round" stroke-linejoin="round"/>
    <path d="M10 14 C8 18, 8 24, 12 30 L16 34 L20 32 L24 34 L28 30 C32 24, 32 18, 30 14" stroke="#6366f1" stroke-width="2" stroke-linecap="round" stroke-linejoin="round" fill="none"/>
    <path d="M12 18 L18 18 M15 18 L15 28" stroke="#ffffff" stroke-width="2.5" stroke-linecap="round"/>
    <path d="M22 18 L28 18 M22 23 L26 23 M22 28 L28 28 M22 18 L22 28" stroke="#6366f1" stroke-width="2.5" stroke-linecap="round"/>
  </g>
</svg>
